<svg id="Layer_1" data-name="Layer 1" xmlns="http://www.w3.org/2000/svg" viewBox="0 0 667.76 310.73"><defs><style>.cls-1{fill:#3fb8af;}.cls-2{fill:#fff;}</style></defs><title>community_sift-logo-rgb</title><path class="cls-1" d="M266.45,68.24a7.78,7.78,0,0,0,7.66-5.08L270,60.39c-.63,2-1.73,3.24-3.57,3.24-3.28,0-4.27-4-4.27-8.66s1-8.66,4.27-8.66c2,0,3.06,1.4,3.69,3.54l4.16-2.58c-1.25-3.24-3.65-5.56-7.85-5.56-7.11,0-9.06,6.56-9.06,13.27S259.34,68.24,266.45,68.24Z"/><path class="cls-1" d="M289.72,68.24c6.74,0,8.88-6.19,8.88-13.26s-2.14-13.27-8.88-13.27S280.84,47.9,280.84,55,283,68.24,289.72,68.24Zm0-21.92c2.95,0,4.09,3.28,4.09,8.66s-1.18,8.66-4.09,8.66-4.09-3.28-4.09-8.66S286.77,46.32,289.72,46.32Z"/><path class="cls-1" d="M311.93,52c0-.77,0-1.84,0-1.84H312s.55,1,.89,1.62l4.35,7.37h.07l4.42-7.44c.37-.59.81-1.47.81-1.47h.07s0,1,0,1.77V67.87h4.79V42.08H322L318.15,49l-.89,1.66h-.07s-.52-1-.85-1.62l-3.9-6.93h-5.31V67.87h4.79Z"/><path class="cls-1" d="M341.85,52c0-.77,0-1.84,0-1.84h.07s.55,1,.89,1.62l4.35,7.37h.07l4.42-7.44c.37-.59.81-1.47.81-1.47h.07s0,1,0,1.77V67.87h4.79V42.08h-5.31L348.08,49l-.89,1.66h-.07s-.52-1-.85-1.62l-3.91-6.93h-5.31V67.87h4.79Z"/><path class="cls-1" d="M374.94,68.24c4.49,0,7.85-2.73,7.85-9V42.08H378V59.47c0,2.5-.81,4.16-3.13,4.16s-3.13-1.58-3.13-4.13V42.08h-4.79V59.25C366.94,65.51,370.44,68.24,374.94,68.24Z"/><path class="cls-1" d="M408.47,67.87V42.08h-4.28V56c0,.63,0,1.7,0,1.88h-.07a16.61,16.61,0,0,0-.63-1.73L397,42.08h-4.57V67.87h4.27V53.58c0-.81,0-1.92,0-1.92h.07s.33,1,.63,1.73L404,67.87Z"/><rect class="cls-1" x="418.16" y="42.08" width="4.79" height="25.79"/><polygon class="cls-1" points="430.89 46.69 435.42 46.69 435.42 67.87 440.25 67.87 440.25 46.69 444.78 46.69 444.78 42.08 430.89 42.08 430.89 46.69"/><path class="cls-1" d="M457.61,67.87h4.83v-7l6.27-18.76h-5.42l-2.54,9.25a27.78,27.78,0,0,0-.66,3.24H460s-.3-1.88-.66-3.24l-2.58-9.25h-5.38l6.23,18.53Z"/><path class="cls-2" d="M328.33,160.16c-15.8-5.93-26.33-11.85-26.33-21.4,0-9.88,9.54-16.13,19.09-16.13,12.26,0,24,4.08,33.19,16.93a4.29,4.29,0,0,0,6.4.73l24.59-22.59c-15.14-19.42-35.87-30.28-62.87-30.28-43.12,0-62.21,29.29-62.21,53.33,0,33.9,30,47.72,55.63,57.6,17.11,6.58,31.6,14.15,31.6,26.33,0,9.87-7.57,17.44-21.07,17.44-16.31,0-30.48-10.95-39.87-23.47a4.39,4.39,0,0,0-6.61-.53L256.4,241.34a4.47,4.47,0,0,0-.31,6c14.79,18.55,36.53,33,68.29,33,41.48,0,63.86-23,63.86-59.58C388.23,186.17,354,169.71,328.33,160.16Z"/><path class="cls-2" d="M401.11,95.2V272.33a4.35,4.35,0,0,0,4.35,4.35h34a4.4,4.4,0,0,0,4.4-4.4V90.71H405.6A4.49,4.49,0,0,0,401.11,95.2Z"/><path class="cls-2" d="M544.77,26.18c-48.45-4.76-68.08,24.48-68.08,64.53H461.06a4.45,4.45,0,0,0-4.45,4.45V122a4.29,4.29,0,0,0,4.29,4.29H476.7V272.85a4.16,4.16,0,0,0,4.16,4.16h34.23a4.4,4.4,0,0,0,4.4-4.4V126.26h24.89a4.4,4.4,0,0,0,4.4-4.4V90.71H519.49V83.14c0-13.16,5.59-21.07,16.45-21.07a21.84,21.84,0,0,1,7,1.27,4.39,4.39,0,0,0,5.81-4.16V30.57A4.43,4.43,0,0,0,544.77,26.18Z"/><path class="cls-2" d="M650.78,90.71H623.71V30.07a4.4,4.4,0,0,0-4.4-4.4h-34a4.4,4.4,0,0,0-4.4,4.4V90.71h-15a4.4,4.4,0,0,0-4.4,4.4v27.73a4.4,4.4,0,0,0,4.4,4.4h15V223c0,37.2,14.48,57.27,53.65,57.27a149.93,149.93,0,0,0,17.52-1A4.4,4.4,0,0,0,656,275V237.37c-3.21,1.87-6.8,3.11-13.17,3.11-10.86,0-19.09-7.9-19.09-21.07V127.24h27.08a4.4,4.4,0,0,0,4.4-4.4V95.11A4.4,4.4,0,0,0,650.78,90.71Z"/><path class="cls-1" d="M45.65,51.82c8.46-.28,7.94-14.4-1.49-12.72C36.32,40.46,38.24,52.07,45.65,51.82Z"/><path class="cls-1" d="M24,70.66c10.58-.34,9.93-18-1.86-15.9C12.33,56.46,14.73,71,24,70.66Z"/><path class="cls-1" d="M52.72,88.47c4.28-8.1-3-17-11.48-15.54-5.16.87-6.93,3.54-7.78,5.16a11.35,11.35,0,0,0,0,10.38C37.06,95.25,48.67,96.09,52.72,88.47Z"/><path class="cls-1" d="M88.31,51.82c8.46-.28,7.95-14.4-1.49-12.72C79,40.46,80.9,52.07,88.31,51.82Z"/><path class="cls-1" d="M69,70.66c10.58-.34,9.93-18-1.86-15.9C57.31,56.46,59.7,71,69,70.66Z"/><path class="cls-1" d="M100.95,88.47c4.28-8.1-3-17-11.48-15.54-5.16.87-6.93,3.54-7.78,5.16a11.34,11.34,0,0,0,0,10.38C85.28,95.25,96.89,96.09,100.95,88.47Z"/><path class="cls-1" d="M136.5,51.82c8.46-.28,7.94-14.4-1.49-12.72C127.17,40.46,129.09,52.07,136.5,51.82Z"/><path class="cls-1" d="M180.3,51.82c8.46-.28,7.94-14.4-1.49-12.72C171,40.46,172.88,52.07,180.3,51.82Z"/><path class="cls-1" d="M113.94,70.66c10.58-.34,9.93-18-1.86-15.9C102.28,56.46,104.68,71,113.94,70.66Z"/><path class="cls-1" d="M158.91,70.66c10.58-.34,9.93-18-1.86-15.9C147.25,56.46,149.65,71,158.91,70.66Z"/><path class="cls-1" d="M203.89,70.66c10.58-.34,9.93-18-1.86-15.9C192.23,56.46,194.62,71,203.89,70.66Z"/><path class="cls-1" d="M149.17,88.47c4.28-8.1-3-17-11.48-15.54-5.16.87-6.93,3.54-7.78,5.16a11.34,11.34,0,0,0,0,10.38C133.51,95.25,145.11,96.09,149.17,88.47Z"/><path class="cls-1" d="M178.14,78.09a11.34,11.34,0,0,0,0,10.38c3.59,6.79,15.2,7.62,19.25,0,4.28-8.1-3-17-11.48-15.54C180.75,73.8,179,76.46,178.14,78.09Z"/><path class="cls-1" d="M222.25,99.81c-3.71-7-15.72-7.88-19.91,0a11,11,0,0,0-1.18,3.71H175.82a12,12,0,0,0-1.16-3.71c-3.71-7-15.72-7.88-19.91,0a11,11,0,0,0-1.18,3.71H127.83a12,12,0,0,0-1.16-3.71c-3.71-7-15.71-7.88-19.91,0a11,11,0,0,0-1.18,3.71H79.85a12,12,0,0,0-1.16-3.71c-3.71-7-15.72-7.88-19.91,0a11,11,0,0,0-1.18,3.71h-27A11.94,11.94,0,0,0,29.51,100c-3.71-7-15.72-7.88-19.91,0a10.92,10.92,0,0,0-1,2.86c-.07.23-.07.46-.13.69v57.33C8.44,194.31,39.71,226,78.31,226h17c15.88,47.78,78.29,56.31,68.79,48.51-21.58-17.71-21.77-38.31-21.77-48.51h18.36c40.08,0,62.95-29.66,62.95-58.18V107.85C223.63,104.38,223.1,101.43,222.25,99.81ZM21.35,131.16c4.19-7.88,16.19-7,19.91,0a11.73,11.73,0,0,1,0,10.73c-.88,1.68-2.7,4.44-8,5.34C24.49,148.73,16.92,139.53,21.35,131.16ZM48.5,171.94c-11.08,2-11.69-14.62-1.75-14.95C55.45,156.7,57.71,170.34,48.5,171.94Zm21.67,22.81c-8.87,1.58-9.35-11.7-1.4-12C75.74,182.55,77.54,193.47,70.17,194.75Zm13.45-52.86c-.88,1.68-2.7,4.44-8,5.34-8.73,1.5-16.29-7.7-11.87-16.07,4.19-7.88,16.19-7,19.91,0A11.72,11.72,0,0,1,83.62,141.89Zm10.84,30.05c-11.08,2-11.69-14.62-1.75-14.95C101.42,156.7,103.67,170.34,94.46,171.94Zm20.18,22.81c-8.87,1.58-9.35-11.7-1.4-12C120.21,182.55,122,193.47,114.65,194.75ZM126,141.89c-.88,1.68-2.7,4.44-8,5.34-8.72,1.5-16.29-7.7-11.86-16.07,4.19-7.88,16.19-7,19.91,0A11.73,11.73,0,0,1,126,141.89Zm12.95,30.05c-11.08,2-11.69-14.62-1.75-14.95C145.89,156.7,148.15,170.34,138.94,171.94Zm23.38,22.81c-8.87,1.58-9.35-11.7-1.4-12C167.88,182.55,169.68,193.47,162.31,194.75Zm6-52.86c-.88,1.68-2.7,4.44-8,5.34-8.72,1.5-16.29-7.7-11.87-16.07,4.19-7.88,16.19-7,19.91,0A11.73,11.73,0,0,1,168.35,141.89Zm18.25,30.05c-11.08,2-11.69-14.62-1.75-14.95C193.56,156.7,195.82,170.34,186.61,171.94Zm24.11-30.05c-.88,1.68-2.7,4.44-8,5.34-8.72,1.5-16.29-7.7-11.86-16.07,4.19-7.88,16.19-7,19.91,0A11.73,11.73,0,0,1,210.72,141.89Z"/></svg>