<?xml version="1.0" encoding="utf-8"?>
<!-- Generator: Adobe Illustrator 19.0.0, SVG Export Plug-In . SVG Version: 6.00 Build 0)  -->
<svg version="1.1" id="Layer_1" xmlns="http://www.w3.org/2000/svg" xmlns:xlink="http://www.w3.org/1999/xlink" x="0px" y="0px"
	 viewBox="0 0 128 128" style="enable-background:new 0 0 128 128;" xml:space="preserve">
<style type="text/css">
	.st0{fill:#3FB8AF;}
</style>
<path id="XMLID_26_" class="st0" d="M27.5,7.8C32,7.6,31.7,0.1,26.8,1C22.6,1.8,23.6,7.9,27.5,7.8z"/>
<path id="XMLID_25_" class="st0" d="M16.1,17.7c5.6-0.2,5.3-9.5-1-8.4C9.9,10.2,11.2,17.9,16.1,17.7z"/>
<path id="XMLID_24_" class="st0" d="M31.3,27.2c2.3-4.3-1.6-9-6.1-8.2c-2.7,0.5-3.7,1.9-4.1,2.7c-0.9,1.7-0.9,3.8,0,5.5
	C23,30.8,29.1,31.2,31.3,27.2z"/>
<path id="XMLID_23_" class="st0" d="M50.1,7.8c4.5-0.1,4.2-7.6-0.8-6.7C45.2,1.8,46.2,7.9,50.1,7.8z"/>
<path id="XMLID_22_" class="st0" d="M39.9,17.7c5.6-0.2,5.3-9.5-1-8.4C33.7,10.2,35,17.9,39.9,17.7z"/>
<path id="XMLID_21_" class="st0" d="M56.8,27.2c2.3-4.3-1.6-9-6.1-8.2c-2.7,0.5-3.7,1.9-4.1,2.7c-0.9,1.7-0.9,3.8,0,5.5
	C48.5,30.8,54.7,31.2,56.8,27.2z"/>
<path id="XMLID_20_" class="st0" d="M75.6,7.8c4.5-0.1,4.2-7.6-0.8-6.7C70.7,1.8,71.7,7.9,75.6,7.8z"/>
<path id="XMLID_19_" class="st0" d="M98.8,7.8C103.3,7.6,103,0.1,98,1C93.9,1.8,94.9,7.9,98.8,7.8z"/>
<path id="XMLID_18_" class="st0" d="M63.7,17.7c5.6-0.2,5.3-9.5-1-8.4C57.5,10.2,58.8,17.9,63.7,17.7z"/>
<path id="XMLID_17_" class="st0" d="M87.5,17.7c5.6-0.2,5.3-9.5-1-8.4C81.3,10.2,82.6,17.9,87.5,17.7z"/>
<path id="XMLID_16_" class="st0" d="M111.3,17.7c5.6-0.2,5.3-9.5-1-8.4C105.1,10.2,106.4,17.9,111.3,17.7z"/>
<path id="XMLID_15_" class="st0" d="M82.3,27.2c2.3-4.3-1.6-9-6.1-8.2c-2.7,0.5-3.7,1.9-4.1,2.7c-0.9,1.7-0.9,3.8,0,5.5
	C74.1,30.8,80.2,31.2,82.3,27.2z"/>
<path id="XMLID_14_" class="st0" d="M97.7,21.7c-0.9,1.7-0.9,3.8,0,5.5c1.9,3.6,8,4,10.2,0c2.3-4.3-1.6-9-6.1-8.2
	C99.1,19.4,98.1,20.8,97.7,21.7z"/>
<path id="XMLID_28_" class="st0" d="M121,33.2c-2-3.7-8.3-4.2-10.5,0c-0.3,0.6-0.5,1.3-0.6,2H96.5c-0.1-0.7-0.3-1.3-0.6-2
	c-2-3.7-8.3-4.2-10.5,0c-0.3,0.6-0.5,1.3-0.6,2H71c-0.1-0.7-0.3-1.3-0.6-2c-2-3.7-8.3-4.2-10.5,0c-0.3,0.6-0.5,1.3-0.6,2H45.6
	c-0.1-0.7-0.3-1.3-0.6-2c-2-3.7-8.3-4.2-10.5,0c-0.3,0.6-0.5,1.3-0.6,2H19.6c-0.1-0.6-0.3-1.3-0.6-1.9c-2-3.7-8.3-4.2-10.5,0
	c-0.2,0.5-0.4,1-0.5,1.5c0,0.1,0,0.2-0.1,0.4v30.3c0,17.7,16.5,34.5,37,34.5h9c8.4,25.3,41.4,29.8,36.4,25.7
	c-11.4-9.4-11.5-20.3-11.5-25.7h9.7c21.2,0,33.3-15.7,33.3-30.8V37.4C121.8,35.6,121.5,34,121,33.2z M14.7,49.8
	c2.2-4.2,8.6-3.7,10.5,0c0.9,1.8,0.9,3.9,0,5.7c-0.5,0.9-1.4,2.4-4.2,2.8C16.3,59.1,12.3,54.2,14.7,49.8z M29.1,71.4
	c-5.9,1.1-6.2-7.7-0.9-7.9C32.7,63.3,33.9,70.5,29.1,71.4z M40.5,83.4c-4.7,0.8-4.9-6.2-0.7-6.4C43.5,77,44.4,82.8,40.5,83.4z
	 M47.6,55.4c-0.5,0.9-1.4,2.4-4.2,2.8c-4.6,0.8-8.6-4.1-6.3-8.5c2.2-4.2,8.6-3.7,10.5,0C48.6,51.6,48.6,53.7,47.6,55.4z M53.4,71.4
	c-5.9,1.1-6.2-7.7-0.9-7.9C57.1,63.3,58.3,70.5,53.4,71.4z M64.1,83.4c-4.7,0.8-4.9-6.2-0.7-6.4C67,77,68,82.8,64.1,83.4L64.1,83.4z
	 M70.1,55.4c-0.5,0.9-1.4,2.4-4.2,2.8c-4.6,0.8-8.6-4.1-6.3-8.5c2.2-4.2,8.6-3.7,10.5,0C71,51.6,71,53.7,70.1,55.4z M76.9,71.4
	c-5.9,1.1-6.2-7.7-0.9-7.9C80.6,63.3,81.8,70.5,76.9,71.4L76.9,71.4z M89.3,83.4c-4.7,0.8-4.9-6.2-0.7-6.4
	C92.2,77,93.2,82.8,89.3,83.4L89.3,83.4z M92.5,55.4c-0.5,0.9-1.4,2.4-4.2,2.8c-4.6,0.8-8.6-4.1-6.3-8.5c2.2-4.2,8.6-3.7,10.5,0
	C93.4,51.6,93.4,53.7,92.5,55.4L92.5,55.4z M102.1,71.4c-5.9,1.1-6.2-7.7-0.9-7.9C105.8,63.3,107,70.5,102.1,71.4L102.1,71.4z
	 M114.9,55.4c-0.5,0.9-1.4,2.4-4.2,2.8c-4.6,0.8-8.6-4.1-6.3-8.5c2.2-4.2,8.6-3.7,10.5,0C115.9,51.6,115.8,53.7,114.9,55.4
	L114.9,55.4z"/>
</svg>
